<svg width="16" height="16" viewBox="0 0 16 16" fill="none" xmlns="http://www.w3.org/2000/svg">
<path fill-rule="evenodd" clip-rule="evenodd" d="M5.58041 0.633274L5.44226 0.633241C4.41523 0.632869 3.7259 0.632619 3.14675 0.828713C2.05531 1.19827 1.19836 2.05522 0.828805 3.14666C0.63271 3.72581 0.63296 4.41514 0.633333 5.44217L0.633366 5.58032L0.633361 5.64388C0.633291 6.28123 0.633247 6.68547 0.699423 7.076C0.823516 7.80833 1.11941 8.50082 1.56285 9.0967C1.79932 9.41447 2.09147 9.69386 2.5521 10.1344L2.59803 10.1783L5.27994 12.7436L5.29877 12.7616C5.8041 13.245 6.21009 13.6333 6.56261 13.9256C6.92482 14.2258 7.2701 14.459 7.66506 14.6057C8.52277 14.9243 9.46809 14.9138 10.3185 14.5762C10.7101 14.4208 11.0501 14.18 11.4056 13.8718C11.7515 13.5717 12.1488 13.1745 12.6433 12.68L12.6617 12.6616L12.6801 12.6432C13.1746 12.1487 13.5718 11.7514 13.8718 11.4055C14.1801 11.05 14.4209 10.71 14.5763 10.3184C14.9139 9.468 14.9244 8.52267 14.6058 7.66497C14.4591 7.27001 14.2259 6.92473 13.9257 6.56252C13.6334 6.21 13.2451 5.80402 12.7617 5.29871L12.7437 5.27985L10.1784 2.59794L10.1344 2.552C9.69395 2.09138 9.41456 1.79923 9.09679 1.56275C8.50092 1.11932 7.80842 0.823424 7.0761 0.699331C6.68556 0.633156 6.28132 0.6332 5.64397 0.63327L5.58041 0.633274ZM3.59574 2.15476C3.92702 2.04259 4.36291 2.03327 5.58041 2.03327C6.30202 2.03327 6.58201 2.03557 6.8422 2.07965C7.35639 2.16678 7.84261 2.37454 8.26099 2.68589C8.47269 2.84343 8.66788 3.04418 9.16668 3.56565L11.732 6.24756C12.2375 6.77607 12.5911 7.14634 12.8479 7.45603C13.1002 7.7604 13.2243 7.96632 13.2934 8.15246C13.4915 8.68562 13.4849 9.27326 13.2751 9.8019C13.2018 9.98645 13.0732 10.1896 12.8142 10.4883C12.5506 10.7922 12.1889 11.1545 11.6717 11.6716C11.1546 12.1888 10.7922 12.5505 10.4883 12.8141C10.1897 13.0731 9.98654 13.2017 9.80199 13.275C9.27335 13.4848 8.68571 13.4914 8.15255 13.2933C7.96641 13.2242 7.76049 13.1001 7.45612 12.8478C7.14644 12.591 6.77617 12.2374 6.24765 11.7319L3.56574 9.16659C3.04427 8.66779 2.84353 8.4726 2.68598 8.2609C2.37463 7.84251 2.16688 7.3563 2.07975 6.84211C2.03566 6.58192 2.03337 6.30193 2.03337 5.58032C2.03337 4.36282 2.04269 3.92693 2.15485 3.59565C2.38458 2.91719 2.91728 2.38448 3.59574 2.15476ZM4.70005 5.6666C4.70005 5.13273 5.13284 4.69994 5.66672 4.69994C6.20059 4.69994 6.63338 5.13273 6.63338 5.6666C6.63338 6.20048 6.20059 6.63327 5.66672 6.63327C5.13284 6.63327 4.70005 6.20048 4.70005 5.6666ZM5.66672 3.29994C4.35964 3.29994 3.30005 4.35953 3.30005 5.6666C3.30005 6.97368 4.35964 8.03327 5.66672 8.03327C6.97379 8.03327 8.03338 6.97368 8.03338 5.6666C8.03338 4.35953 6.97379 3.29994 5.66672 3.29994Z" fill="#1D2D50"/>
</svg>
