<svg width="16" height="16" viewBox="0 0 16 16" fill="none" xmlns="http://www.w3.org/2000/svg">
<path fill-rule="evenodd" clip-rule="evenodd" d="M2.25 4.74997C2.25 3.6454 3.14543 2.74997 4.25 2.74997C5.35457 2.74997 6.25 3.6454 6.25 4.74997C6.25 5.85454 5.35457 6.74997 4.25 6.74997C3.14543 6.74997 2.25 5.85454 2.25 4.74997ZM7.66946 3.99997C7.32612 2.42738 5.92556 1.24997 4.25 1.24997C2.317 1.24997 0.75 2.81697 0.75 4.74997C0.75 6.68297 2.317 8.24997 4.25 8.24997C5.92556 8.24997 7.32612 7.07256 7.66946 5.49997H13C13.4142 5.49997 13.75 5.16418 13.75 4.74997C13.75 4.33576 13.4142 3.99997 13 3.99997H7.66946ZM2.25 11.25C2.25 10.8358 2.58579 10.5 3 10.5H8.33054C8.67388 8.92738 10.0744 7.74997 11.75 7.74997C13.683 7.74997 15.25 9.31697 15.25 11.25C15.25 13.183 13.683 14.75 11.75 14.75C10.0744 14.75 8.67388 13.5726 8.33054 12H3C2.58579 12 2.25 11.6642 2.25 11.25ZM9.75 11.25C9.75 12.3545 10.6454 13.25 11.75 13.25C12.8546 13.25 13.75 12.3545 13.75 11.25C13.75 10.1454 12.8546 9.24997 11.75 9.24997C10.6454 9.24997 9.75 10.1454 9.75 11.25Z" fill="#1D2D50"/>
</svg>
