 <svg width="16" height="16" viewBox="0 0 16 16" fill="none" xmlns="http://www.w3.org/2000/svg">
<g clip-path="url(#clip0_1_495)">
<path d="M7.76824 0.075243C7.91887 0.0262996 8.08113 0.0262998 8.23176 0.0752432L12.7644 1.54799C12.915 1.59693 13.0463 1.69231 13.1394 1.82044L15.9407 5.67615C16.0338 5.80428 16.084 5.9586 16.084 6.11698V10.8829C16.084 11.0413 16.0338 11.1956 15.9407 11.3237L13.1394 15.1794C13.0463 15.3076 12.915 15.4029 12.7644 15.4519L8.23176 16.9246C8.08113 16.9736 7.91887 16.9736 7.76824 16.9246L3.23559 15.4519C3.08495 15.4029 2.95368 15.3076 2.86059 15.1794L0.0592563 11.3237C-0.0338397 11.1956 -0.0839806 11.0413 -0.0839806 10.8829V6.11698C-0.0839806 5.9586 -0.0338394 5.80428 0.0592567 5.67615L2.86059 1.82044C2.95368 1.69231 3.08496 1.59693 3.23559 1.54799L7.76824 0.075243Z" stroke="#1D2D50" stroke-width="1.5"/>
</g>
<defs>
<clipPath id="clip0_1_495">
<rect width="16" height="16" fill="white"/>
</clipPath>
</defs>
</svg>
