<svg width="30" height="26" viewBox="0 0 30 26" fill="none" xmlns="http://www.w3.org/2000/svg">
<path d="M28.5751 5C27.2085 1.96667 24.3418 0 21.2418 0C18.1418 0 16.1418 1.36667 14.9751 2.83333C13.8084 1.36667 11.8085 0 8.70845 0C5.60845 0 2.74179 1.96667 1.37512 5C-0.0248784 8.16667 0.575119 11.6666 3.00845 14.4C8.84179 20.9666 14.0085 25.6 14.0751 25.6333C14.3418 25.8667 14.6418 25.9667 14.9751 25.9667C15.3084 25.9667 15.6085 25.8667 15.8751 25.6333C15.9418 25.6 21.0751 20.9333 26.9418 14.4C29.4084 11.6666 30.0085 8.16667 28.5751 5ZM24.9751 12.6333C20.6418 17.4667 16.7085 21.2667 15.0085 22.8333C13.3085 21.2333 9.37512 17.4667 5.04179 12.6C3.30845 10.6333 2.87512 8.26666 3.84179 6.03332C4.74179 3.99999 6.70845 2.60002 8.74178 2.60002C12.7085 2.60002 13.6085 5.56668 13.7085 5.93335C13.8418 6.53335 14.3751 6.93335 14.9751 6.93335C15.5751 6.93335 16.1084 6.50002 16.2751 5.93335C16.3751 5.60002 17.2751 2.60002 21.2418 2.60002C23.2418 2.60002 25.2085 3.96666 26.1418 6.03332C27.1418 8.29999 26.7085 10.6667 24.9751 12.6333ZM24.6418 8.76668C24.6751 9.40001 24.2085 9.96667 23.5418 10C23.5085 10 23.4751 10 23.4751 10C22.8751 10 22.3418 9.53332 22.3085 8.89998C22.1751 6.99998 20.9418 6.7 20.7085 6.66667C20.0751 6.56667 19.6418 5.99999 19.7085 5.36666C19.8085 4.73332 20.4085 4.29999 21.0418 4.36666C22.2085 4.53332 24.4418 5.66668 24.6418 8.76668ZM23.0418 10.7C23.3085 10.9667 23.4418 11.3 23.4418 11.6333C23.4418 12 23.3085 12.3333 23.0418 12.5666C22.8085 12.8333 22.4418 12.9667 22.1084 12.9667C21.7751 12.9667 21.4085 12.8333 21.1751 12.5666C20.9085 12.3333 20.7751 11.9667 20.7751 11.6333C20.7751 11.3 20.9085 10.9333 21.1751 10.7C21.4085 10.4667 21.7751 10.3 22.1084 10.3C22.4418 10.3333 22.7751 10.4667 23.0418 10.7Z" fill="#1D2D50"/>
</svg>
